HIERARCHY
ROOT Hips
{
	OFFSET -21.947001 39.810204 44.525997
	CHANNELS 6 Xposition Yposition Zposition Zrotation Xrotation Yrotation
	JOINT Chest
	{
		OFFSET -0.201599 0.334099 6.453201
		CHANNELS 6 Xposition Yposition Zposition Zrotation Xrotation Yrotation
		JOINT Chest2
		{
			OFFSET 0.000000 0.000000 3.568001
			CHANNELS 6 Xposition Yposition Zposition Zrotation Xrotation Yrotation
			JOINT Neck
			{
				OFFSET 0.000000 0.000000 8.296402
				CHANNELS 6 Xposition Yposition Zposition Zrotation Xrotation Yrotation
				JOINT Head
				{
					OFFSET 0.000000 0.000000 2.173901
					CHANNELS 6 Xposition Yposition Zposition Zrotation Xrotation Yrotation
					End Site
					{
						OFFSET 0.000000 0.000000 7.891998
					}
				}
			}
			JOINT LeftCollar
			{
				OFFSET 1.927601 0.221401 6.049000
				CHANNELS 6 Xposition Yposition Zposition Zrotation Xrotation Yrotation
				JOINT LeftShoulder
				{
					OFFSET 4.959700 0.000000 0.000000
					CHANNELS 6 Xposition Yposition Zposition Zrotation Xrotation Yrotation
					JOINT LeftElbow
					{
						OFFSET 0.000000 0.000000 -8.654202
						CHANNELS 6 Xposition Yposition Zposition Zrotation Xrotation Yrotation
						JOINT LeftWrist
						{
							OFFSET 0.000000 0.000000 -13.864101
							CHANNELS 6 Xposition Yposition Zposition Zrotation Xrotation Yrotation
							End Site
							{
								OFFSET 0.000000 0.000000 -2.173901
							}
						}
					}
				}
			}
			JOINT RightCollar
			{
				OFFSET -3.155701 -0.764999 6.687801
				CHANNELS 6 Xposition Yposition Zposition Zrotation Xrotation Yrotation
				JOINT RightShoulder
				{
					OFFSET -3.592899 0.000000 0.000000
					CHANNELS 6 Xposition Yposition Zposition Zrotation Xrotation Yrotation
					JOINT RightElbow
					{
						OFFSET 0.000000 0.000000 -10.352398
						CHANNELS 6 Xposition Yposition Zposition Zrotation Xrotation Yrotation
						JOINT RightWrist
						{
							OFFSET 0.000000 0.000000 -12.750301
							CHANNELS 6 Xposition Yposition Zposition Zrotation Xrotation Yrotation
							End Site
							{
								OFFSET 0.000000 0.000000 -2.173901
							}
						}
					}
				}
			}
		}
	}
	JOINT LeftHip
	{
		OFFSET 2.460600 -0.518101 -2.735500
		CHANNELS 6 Xposition Yposition Zposition Zrotation Xrotation Yrotation
		JOINT LeftKnee
		{
			OFFSET 0.000000 -0.000004 -17.005899
			CHANNELS 6 Xposition Yposition Zposition Zrotation Xrotation Yrotation
			JOINT LeftAnkle
			{
				OFFSET 0.000000 0.000000 -19.194401
				CHANNELS 6 Xposition Yposition Zposition Zrotation Xrotation Yrotation
				End Site
				{
					OFFSET 0.000000 -8.134600 0.000000
				}
			}
		}
	}
	JOINT RightHip
	{
		OFFSET -3.115499 -0.679600 -2.320301
		CHANNELS 6 Xposition Yposition Zposition Zrotation Xrotation Yrotation
		JOINT RightKnee
		{
			OFFSET 0.000000 -0.000004 -17.680401
			CHANNELS 6 Xposition Yposition Zposition Zrotation Xrotation Yrotation
			JOINT RightAnkle
			{
				OFFSET 0.000000 0.000000 -16.993797
				CHANNELS 6 Xposition Yposition Zposition Zrotation Xrotation Yrotation
				End Site
				{
					OFFSET 0.000000 -8.842300 0.000000
				}
			}
		}
	}
}
MOTION
Frames: 5
Frame Time: 0.041667
57.694504 7.037308 36.593498 2879.232476 3.858326 -7.856515 -0.201607 0.334101 6.453203 -2.636468 9.463581 17.835434 0.000000 0.000003 3.567996 -11.014194 -3.957719 -2.803205 0.000000 0.000000 8.296391 201.271946 -172.523120 168.512597 0.000000 0.000001 2.173900 -0.031502 2.051539 -0.700123 1.927595 0.221402 6.048992 -15.531346 -4.631591 5.788043 4.959698 0.000005 0.000001 153.311082 204.266069 111.680102 0.000012 -0.000005 -8.654200 133.028480 -50.118654 69.639700 -0.000010 0.000004 -13.864100 3933.674895 -55.319693 -29.440243 -3.155708 -0.764999 6.687792 35.574327 1.190131 7.140477 -3.592896 -0.000002 0.000006 -166.547032 148.027179 248.105693 0.000003 -0.000000 -10.352389 -231.180730 -58.378617 -243.434171 -0.000002 0.000000 -12.750301 149.970750 205.638363 -153.077653 2.460596 -0.518100 -2.735503 -1032.085406 -35.271824 20.897333 -0.000008 -0.000006 -17.005901 785.047409 156.280384 -106.575185 -0.000010 -0.000003 -19.194401 232.150207 178.069671 208.168197 -3.115498 -0.679593 -2.320304 -433.070002 -49.382756 -32.948382 0.000007 -0.000011 -17.680397 -738.266623 173.237052 -254.827200 0.000001 -0.000000 -16.993799 1356.458849 24.475862 -403.656312
57.290596 6.987305 36.786995 2878.863755 4.072443 -6.737204 -0.201603 0.334098 6.453194 -1.412686 9.254611 19.062409 -0.000005 0.000006 3.567998 -13.833565 -3.585010 -3.371125 -0.000010 -0.000000 8.296393 203.452839 -172.128144 164.895042 -0.000001 -0.000001 2.173908 -0.175873 2.037103 -0.782555 1.927594 0.221403 6.048992 -16.250258 -2.995933 5.287189 4.959706 0.000001 0.000002 152.201627 205.747045 114.037214 0.000005 -0.000001 -8.654202 133.894671 -50.388457 71.916127 -0.000004 -0.000007 -13.864099 3925.964758 -54.329165 -34.884918 -3.155718 -0.765002 6.687796 34.522918 0.649384 7.102001 -3.592903 0.000001 -0.000001 -168.896371 147.137561 252.631977 -0.000002 -0.000003 -10.352399 -229.871000 -57.779453 -242.227031 -0.000002 0.000002 -12.750310 146.044908 206.079334 -159.762906 2.460589 -0.518106 -2.735509 -1031.254418 -35.918093 20.133306 0.000001 -0.000001 -17.005898 784.006816 155.907496 -106.987455 -0.000018 -0.000000 -19.194401 232.097642 177.870147 208.041634 -3.115499 -0.679600 -2.320307 -428.956808 -49.252409 -30.088862 -0.000003 -0.000015 -17.680397 -742.236657 171.935423 -254.499679 0.000001 -0.000004 -16.993793 1357.373985 24.374251 -403.539324
56.887001 6.919506 37.026299 2878.572188 4.189787 -5.479577 -0.201601 0.334095 6.453204 -1.087935 8.919600 19.794440 0.000000 0.000000 3.567997 -15.974332 -3.257254 -3.644317 0.000000 0.000000 8.296410 205.661408 -171.817302 161.513920 -0.000005 -0.000001 2.173897 -0.264731 1.974930 -1.054459 1.927602 0.221403 6.049005 -16.834584 -4.933135 4.639125 4.959699 0.000000 0.000003 152.685505 204.057762 118.672761 0.000005 -0.000003 -8.654193 134.317746 -50.595958 73.923001 -0.000003 -0.000008 -13.864095 3919.024849 -52.983147 -39.842966 -3.155703 -0.765001 6.687807 33.940224 0.041923 7.812933 -3.592890 0.000000 -0.000007 -171.829241 147.224427 256.788093 0.000000 -0.000010 -10.352389 -228.598590 -56.846090 -241.206737 -0.000006 0.000000 -12.750303 141.566052 206.136598 -166.163244 2.460593 -0.518106 -2.735503 -1031.152675 -36.571630 18.758595 0.000004 -0.000005 -17.005898 783.583344 155.356122 -107.727970 -0.000005 0.000003 -19.194405 231.876453 177.736030 207.605526 -3.115499 -0.679602 -2.320302 -424.771650 -48.795189 -27.130073 -0.000002 -0.000002 -17.680391 -746.388647 170.564140 -254.035636 0.000004 -0.000007 -16.993795 1358.366166 24.317097 -403.235872
56.478020 6.843906 37.310898 2878.325208 4.256779 -4.223077 -0.201602 0.334099 6.453204 -0.866494 8.706209 20.684775 0.000004 0.000006 3.567997 -17.882081 -3.123632 -4.147287 0.000002 -0.000005 8.296396 207.351279 -171.571032 158.171253 -0.000004 -0.000001 2.173899 -0.297524 1.874902 -1.424022 1.927602 0.221400 6.048997 -17.524332 -4.317131 4.511896 4.959701 -0.000003 0.000002 152.540582 204.719539 121.284762 -0.000007 -0.000003 -8.654201 132.949140 -50.395123 75.223448 0.000000 -0.000002 -13.864101 3912.622175 -51.049534 -44.420736 -3.155704 -0.765003 6.687796 33.070277 -0.162771 7.707954 -3.592900 -0.000002 0.000002 -175.313389 147.422011 261.838471 0.000009 -0.000006 -10.352393 -227.772780 -56.535081 -239.739039 -0.000010 0.000001 -12.750295 138.225776 205.665083 -172.365302 2.460596 -0.518101 -2.735505 -1030.498835 -37.117522 17.703336 -0.000007 0.000002 -17.005898 782.789621 154.742812 -108.431657 0.000002 0.000011 -19.194403 231.578056 177.568663 207.159269 -3.115496 -0.679597 -2.320301 -420.187664 -48.134529 -23.876666 -0.000006 -0.000009 -17.680401 -750.919358 169.019178 -253.364173 0.000005 -0.000006 -16.993792 1359.348292 24.183063 -402.587496
56.066315 6.758106 37.649796 2877.999764 4.129278 -2.809387 -0.201593 0.334099 6.453208 -0.468879 8.524961 21.016653 0.000003 -0.000002 3.568007 -19.365847 -2.694509 -4.622123 0.000006 0.000000 8.296398 208.444751 -171.619363 155.533735 0.000005 0.000002 2.173900 -0.321338 1.571102 -1.985081 1.927605 0.221409 6.049002 -18.551731 -3.740040 4.543986 4.959694 0.000005 0.000008 152.717648 205.492320 123.200439 0.000005 0.000002 -8.654196 129.726138 -49.032818 75.343632 -0.000003 -0.000002 -13.864101 3906.775096 -49.238492 -48.239994 -3.155703 -0.764996 6.687800 32.595517 0.007909 8.348968 -3.592899 -0.000003 0.000003 -179.407459 148.487834 266.664109 0.000007 -0.000001 -10.352391 -227.704546 -56.051486 -238.671289 -0.000010 -0.000003 -12.750306 134.447465 205.105964 -177.933804 2.460604 -0.518101 -2.735504 -1031.808592 -37.679548 15.130788 0.000007 -0.000003 -17.005899 783.821909 153.844970 -109.907374 -0.000013 0.000002 -19.194401 231.015193 177.240923 206.646485 -3.115492 -0.679598 -2.320298 -415.698645 -46.967523 -20.750673 0.000000 -0.000004 -17.680395 -755.324174 167.726579 -252.448272 0.000010 -0.000007 -16.993799 1360.229988 23.898723 -402.189406
